<svg width="22" height="22" viewBox="0 0 22 22" fill="none" xmlns="http://www.w3.org/2000/svg">
<circle cx="11" cy="11" r="11" fill="#F9B300"/>
<path d="M16.7194 15.5672V13.8451C16.7264 13.5635 16.6295 13.2893 16.4471 13.0744C16.2647 12.8595 16.0095 12.7191 15.7301 12.6797C15.1779 12.607 14.6356 12.4722 14.1138 12.2779C13.9079 12.2006 13.6841 12.1839 13.469 12.2297C13.2539 12.2755 13.0565 12.3819 12.9001 12.5362L12.1696 13.2653C10.7296 12.4481 9.53723 11.2581 8.7184 9.8209L9.4489 9.09185C9.60355 8.93577 9.71013 8.73871 9.75601 8.52403C9.80188 8.30935 9.78513 8.08605 9.70774 7.88058C9.51301 7.35975 9.37794 6.81861 9.3051 6.26747C9.26603 5.9916 9.12779 5.73933 8.91613 5.55766C8.70447 5.376 8.43385 5.27734 8.1547 5.28008H6.4291C6.26939 5.28024 6.11146 5.31357 5.96537 5.37797C5.81928 5.44238 5.68822 5.53643 5.58055 5.65415C5.47287 5.77188 5.39094 5.91068 5.33996 6.06174C5.28898 6.2128 5.27008 6.37279 5.28445 6.53154C5.47326 8.30595 6.07822 10.011 7.05032 11.5086C7.93344 12.8957 9.11174 14.0716 10.5015 14.953C11.9953 15.9198 13.6955 16.5234 15.4655 16.7154C15.625 16.7298 15.7858 16.7107 15.9376 16.6595C16.0893 16.6083 16.2287 16.526 16.3467 16.4179C16.4648 16.3098 16.5589 16.1784 16.6231 16.0319C16.6873 15.8854 16.7201 15.7271 16.7194 15.5672Z" stroke="white" stroke-linecap="round" stroke-linejoin="round"/>
</svg>
