<svg width="72" height="72" viewBox="0 0 72 72" fill="none" xmlns="http://www.w3.org/2000/svg">
<g clip-path="url(#clip0)">
<path d="M25.4998 20.9999C24.9478 20.9999 24.4198 20.6969 24.1558 20.1719L15.1558 2.17193C14.7868 1.43093 15.0868 0.527925 15.8278 0.158925C16.5718 -0.213075 17.4688 0.0869252 17.8408 0.830925L26.8408 18.8309C27.2128 19.5719 26.9098 20.4719 26.1688 20.8439C25.9558 20.9489 25.7278 20.9999 25.4998 20.9999Z" fill="#505050"/>
<path d="M46.4998 20.9999C46.2748 20.9999 46.0468 20.9489 45.8308 20.8409C45.0898 20.4689 44.7898 19.5689 45.1588 18.8279L54.1588 0.827899C54.5308 0.0838996 55.4308 -0.2131 56.1718 0.1559C56.9128 0.5249 57.2128 1.4279 56.8438 2.1689L47.8438 20.1689C47.5768 20.6969 47.0488 20.9999 46.4998 20.9999Z" fill="#505050"/>
<path d="M58.5 3H13.5C12.672 3 12 2.328 12 1.5C12 0.672 12.672 0 13.5 0H58.5C59.328 0 60 0.672 60 1.5C60 2.328 59.328 3 58.5 3Z" fill="#505050"/>
<path d="M52.5 30H19.5C17.019 30 15 27.981 15 25.5V22.5C15 20.019 17.019 18 19.5 18H52.5C54.981 18 57 20.019 57 22.5V25.5C57 27.981 54.981 30 52.5 30ZM19.5 21C18.672 21 18 21.672 18 22.5V25.5C18 26.328 18.672 27 19.5 27H52.5C53.328 27 54 26.328 54 25.5V22.5C54 21.672 53.328 21 52.5 21H19.5Z" fill="#505050"/>
<path d="M52.5 72H19.5C13.71 72 9 67.29 9 61.5C9 60.072 9.282 58.686 9.837 57.384L21.099 27.963C21.396 27.189 22.269 26.808 23.037 27.099C23.811 27.396 24.198 28.263 23.901 29.037L12.618 58.512C12.201 59.49 12 60.48 12 61.5C12 65.634 15.366 69 19.5 69H52.5C56.634 69 60 65.634 60 61.5C60 60.48 59.799 59.49 59.403 58.563L48.099 29.037C47.802 28.263 48.189 27.396 48.963 27.099C49.734 26.805 50.601 27.186 50.901 27.963L62.184 57.438C62.718 58.689 63 60.072 63 61.5C63 67.29 58.29 72 52.5 72Z" fill="#505050"/>
<path d="M45.366 49.5C42.417 49.5 40.875 48.021 39.636 46.833C38.529 45.768 37.728 45 35.985 45C34.245 45 33.447 45.768 32.34 46.833C31.101 48.021 29.562 49.5 26.616 49.5C23.67 49.5 22.131 48.021 20.895 46.83C19.788 45.768 18.987 45 17.25 45C16.422 45 15.75 44.328 15.75 43.5C15.75 42.672 16.422 42 17.25 42C20.196 42 21.735 43.479 22.971 44.67C24.078 45.732 24.879 46.5 26.616 46.5C28.353 46.5 29.154 45.732 30.261 44.67C31.497 43.482 33.039 42 35.985 42C38.934 42 40.476 43.479 41.715 44.667C42.825 45.729 43.626 46.5 45.366 46.5C47.109 46.5 47.91 45.732 49.02 44.667C50.259 43.479 51.801 42 54.75 42C55.578 42 56.25 42.672 56.25 43.5C56.25 44.328 55.578 45 54.75 45C53.007 45 52.206 45.768 51.096 46.833C49.857 48.021 48.315 49.5 45.366 49.5Z" fill="#505050"/>
</g>
<defs>
<clipPath id="clip0">
<rect width="72" height="72" fill="white"/>
</clipPath>
</defs>
</svg>
