<svg width="84" height="84" viewBox="0 0 84 84" fill="none" xmlns="http://www.w3.org/2000/svg">
<g clip-path="url(#clip0)">
<path d="M68.0942 69.9338H66.1497V23.1258C66.1497 23.0467 66.144 22.9688 66.1331 22.8926C67.7723 20.9137 68.7586 18.3755 68.7586 15.611V3.25221C69.5176 3.10816 70.0915 2.44141 70.0915 1.64062C70.0915 0.734672 69.3568 0 68.4509 0H15.5484C14.6425 0 13.9078 0.734672 13.9078 1.64062C13.9078 2.44141 14.4817 3.10816 15.2406 3.25221V15.611C15.2406 18.3661 16.2202 20.8966 17.8495 22.8726V22.8746V69.9338H15.9052C13.1482 69.9338 10.9053 72.1768 10.9053 74.9339V82.3594C10.9053 83.2653 11.6399 84 12.5459 84H71.4534C72.3593 84 73.094 83.2653 73.094 82.3594V74.9337C73.094 72.1768 70.8511 69.9338 68.0942 69.9338ZM65.4775 3.28125V15.611C65.4775 20.105 61.8216 23.761 57.3277 23.761H26.6717C22.1778 23.761 18.5219 20.105 18.5219 15.611V3.28125H65.4775ZM39.5353 33.6374H44.4643V37.202H39.5353V33.6374ZM33.8301 30.3562V27.0423H50.1694V30.3562H33.8301ZM21.131 25.6074C22.7732 26.5214 24.6627 27.0423 26.6717 27.0423H30.5488V31.9968C30.5488 32.9027 31.2835 33.6374 32.1894 33.6374H36.2539V38.8426C36.2539 39.7486 36.9886 40.4832 37.8945 40.4832H46.1047C47.0107 40.4832 47.7453 39.7486 47.7453 38.8426V33.6374H51.8098C52.7158 33.6374 53.4505 32.9027 53.4505 31.9968V27.0423H57.3276C59.3365 27.0423 61.2262 26.5212 62.8683 25.6074V69.9338H51.6438C52.216 68.956 52.5443 67.8188 52.5443 66.6064V65.754H56.8821C57.7881 65.754 58.5228 65.0193 58.5228 64.1133V56.1045C58.5228 55.1985 57.7881 54.4638 56.8821 54.4638H52.5443V53.1584C52.5443 52.2524 51.8097 51.5178 50.9037 51.5178H33.1436C32.2377 51.5178 31.503 52.2524 31.503 53.1584V66.6064C31.503 67.8188 31.8313 68.956 32.4035 69.9338H21.131V25.6074ZM34.7842 66.6063V54.7988H49.2634V66.6063C49.2634 68.4411 47.7706 69.9336 45.9359 69.9336H38.1119C36.2769 69.9338 34.7842 68.4411 34.7842 66.6063ZM52.5445 57.7451H55.2417V62.4725H52.5445V57.7451ZM69.8127 80.7188H14.1867V74.9337C14.1867 73.9861 14.9576 73.2149 15.9054 73.2149H68.0943C69.042 73.2149 69.8131 73.986 69.8131 74.9337V80.7188H69.8127Z" fill="#505050"/>
<path d="M27.0044 19.7253C29.7163 19.7253 31.9228 17.519 31.9228 14.8069C31.9228 12.0947 29.7165 9.88843 27.0044 9.88843C24.2922 9.88843 22.0859 12.0947 22.0859 14.8069C22.0859 17.519 24.2922 19.7253 27.0044 19.7253ZM27.0044 13.1698C27.907 13.1698 28.6415 13.9044 28.6415 14.807C28.6415 15.7097 27.907 16.4442 27.0044 16.4442C26.1017 16.4442 25.3672 15.7097 25.3672 14.807C25.3672 13.9044 26.1017 13.1698 27.0044 13.1698Z" fill="#505050"/>
<path d="M50.8066 13.5156H60.2734C61.1793 13.5156 61.914 12.781 61.914 11.875C61.914 10.969 61.1793 10.2344 60.2734 10.2344H50.8066C49.9007 10.2344 49.166 10.969 49.166 11.875C49.166 12.781 49.9005 13.5156 50.8066 13.5156Z" fill="#505050"/>
<path d="M50.8066 19.3798H60.2734C61.1793 19.3798 61.914 18.6451 61.914 17.7391C61.914 16.8332 61.1793 16.0985 60.2734 16.0985H50.8066C49.9007 16.0985 49.166 16.8332 49.166 17.7391C49.166 18.6451 49.9005 19.3798 50.8066 19.3798Z" fill="#505050"/>
</g>
<defs>
<clipPath id="clip0">
<rect width="84" height="84" fill="white"/>
</clipPath>
</defs>
</svg>
