<svg width="67" height="66" viewBox="0 0 67 66" fill="none" xmlns="http://www.w3.org/2000/svg">
<g clip-path="url(#clip0)">
<path d="M65.6914 26.6192H54.9609V23.8906C54.9609 23.1787 54.375 22.6016 53.6523 22.6016H25.3867C24.6641 22.6016 24.0781 23.1787 24.0781 23.8906C24.0781 24.6026 24.6641 25.1797 25.3867 25.1797H52.3438V35.0624C52.3438 43.744 47.6384 51.8128 40.0406 56.203H14.9203C7.3225 51.8129 2.61719 43.744 2.61719 35.0625V25.1798H11.3848C12.1074 25.1798 12.6934 24.6027 12.6934 23.8908C12.6934 23.1788 12.1074 22.6017 11.3848 22.6017H1.30859C0.585988 22.6017 0 23.1788 0 23.8908V35.0625C0 39.9352 1.32953 44.713 3.84491 48.8791C5.54124 51.6889 7.74229 54.1701 10.3198 56.2032H1.30859C0.585988 56.2032 0 56.7803 0 57.4922C0 62.1835 3.87435 66 8.63672 66H49.4648C54.2272 66 58.1016 62.1835 58.1016 57.4922C58.1016 56.7803 57.5156 56.2032 56.793 56.2032H44.6411C47.0135 54.332 49.0657 52.0804 50.7002 49.543H54.3939C61.3449 49.543 67 43.9723 67 37.125V27.9082C67 27.1963 66.4141 26.6192 65.6914 26.6192ZM55.3411 58.7813C54.742 61.4332 52.3347 63.4219 49.4648 63.4219H8.63672C5.76684 63.4219 3.35968 61.4332 2.76048 58.7813H14.5698H40.3912H55.3411ZM54.9609 35.0625V34.3536H59.1484V37.125C59.1484 39.7076 57.0156 41.8086 54.3939 41.8086H54.0967C54.6679 39.6164 54.9609 37.35 54.9609 35.0625ZM64.3828 37.125C64.3828 42.5507 59.9018 46.9648 54.3939 46.9648H52.1667C52.5845 46.1243 52.9577 45.2637 53.2838 44.3867H54.3939C58.4588 44.3867 61.7656 41.1291 61.7656 37.125V33.0645C61.7656 32.3525 61.1796 31.7754 60.457 31.7754H54.9609V29.1973H64.3828V37.125Z" fill="#505050"/>
<path d="M28.7296 7.1341L28.0488 6.29196C27.0493 5.056 27.0478 3.32827 28.0453 2.09052C28.4946 1.53287 28.3999 0.722047 27.8338 0.279512C27.2676 -0.163281 26.4446 -0.0698238 25.9952 0.487825C24.2362 2.67098 24.2388 5.7182 26.0016 7.89826L26.6825 8.7404C27.9886 10.3556 27.9906 12.6134 26.6872 14.231L25.9895 15.097C25.5401 15.6547 25.6348 16.4655 26.2009 16.908C26.4416 17.0961 26.7285 17.1875 27.0136 17.1875C27.3991 17.1875 27.781 17.0204 28.0395 16.6997L28.7372 15.8337C30.8022 13.2708 30.7992 9.69341 28.7296 7.1341Z" fill="#505050"/>
<path d="M35.9836 10.0324L35.3027 9.1904C34.3032 7.95432 34.3018 6.22659 35.2992 4.98883C35.7485 4.43118 35.6538 3.62036 35.0877 3.17783C34.5215 2.73503 33.6985 2.82849 33.2491 3.38614C31.4901 5.5693 31.4927 8.61651 33.2555 10.7967L33.9364 11.6388C35.2424 13.2542 35.2443 15.5121 33.941 17.1296L33.2434 17.9955C32.794 18.5531 32.8887 19.3639 33.4548 19.8065C33.6955 19.9946 33.9825 20.0858 34.2675 20.0858C34.653 20.0858 35.0351 19.9186 35.2934 19.598L35.9909 18.7322C38.056 16.1694 38.053 12.592 35.9836 10.0324Z" fill="#505050"/>
<path d="M21.4767 10.0325L20.7959 9.19052C19.7964 7.95456 19.7949 6.22671 20.7922 4.98895C21.2416 4.4313 21.1468 3.62048 20.5807 3.17782C20.0145 2.73515 19.1915 2.82874 18.7422 3.38613C16.9833 5.56928 16.9859 8.61663 18.7487 10.7967L19.4296 11.6388C20.7355 13.2542 20.7375 15.5121 19.4343 17.1295L18.7365 17.9953C18.2872 18.553 18.3818 19.3638 18.9479 19.8065C19.1885 19.9945 19.4754 20.0859 19.7605 20.0859C20.146 20.0859 20.528 19.9189 20.7863 19.5983L21.4842 18.7323C23.5492 16.1695 23.5461 12.5921 21.4767 10.0325Z" fill="#505050"/>
<path d="M19.6654 22.9788C19.422 22.739 19.0844 22.6011 18.7402 22.6011C18.3961 22.6011 18.0585 22.739 17.8151 22.9788C17.5718 23.2198 17.4316 23.5511 17.4316 23.8901C17.4316 24.2292 17.5717 24.5617 17.8151 24.8028C18.0585 25.0426 18.3961 25.1792 18.7402 25.1792C19.0844 25.1792 19.422 25.0426 19.6654 24.8028C19.91 24.5617 20.0488 24.2304 20.0488 23.8901C20.0488 23.5511 19.91 23.2185 19.6654 22.9788Z" fill="#505050"/>
<path d="M47.3706 33.7734C46.648 33.7734 46.062 34.3506 46.062 35.0625C46.062 39.8474 44.0918 44.5497 40.6565 47.9638C40.1477 48.4694 40.1515 49.2856 40.6647 49.7868C40.9199 50.036 41.2529 50.1604 41.586 50.1604C41.9228 50.1603 42.2596 50.0329 42.5155 49.7786C46.4326 45.8856 48.6792 40.5218 48.6792 35.0625C48.6792 34.3506 48.0932 33.7734 47.3706 33.7734Z" fill="#505050"/>
<path d="M38.4579 51.4626C38.1028 50.8425 37.3047 50.6234 36.6752 50.9732L36.6454 50.9898C36.0158 51.3396 35.7935 52.1258 36.1485 52.7459C36.3891 53.1659 36.8325 53.4019 37.2895 53.4019C37.5072 53.4019 37.7281 53.3481 37.9312 53.2353L37.9611 53.2187C38.5906 52.8689 38.813 52.0827 38.4579 51.4626Z" fill="#505050"/>
</g>
<defs>
<clipPath id="clip0">
<rect width="67" height="66" fill="white"/>
</clipPath>
</defs>
</svg>
