<svg width="33" height="33" viewBox="0 0 33 33" fill="none" xmlns="http://www.w3.org/2000/svg">
<circle cx="16.5" cy="16.5" r="16.5" fill="white"/>
<path d="M15 19.5C15 18.8167 15.15 18.1833 15.45 17.6C15.75 17.0167 16.1167 16.5167 16.55 16.1C16.9833 15.6667 17.4167 15.2583 17.85 14.875C18.2833 14.475 18.65 14.05 18.95 13.6C19.25 13.1333 19.4 12.65 19.4 12.15C19.4 11.45 19.1583 10.9167 18.675 10.55C18.1917 10.1667 17.5417 9.975 16.725 9.975C15.9417 9.975 15.2667 10.175 14.7 10.575C14.1333 10.975 13.725 11.5417 13.475 12.275L11 10.875C11.4667 9.69167 12.2167 8.78333 13.25 8.15C14.3 7.5 15.4833 7.175 16.8 7.175C18.2833 7.175 19.5667 7.6 20.65 8.45C21.7333 9.3 22.275 10.475 22.275 11.975C22.275 12.675 22.125 13.3333 21.825 13.95C21.525 14.55 21.1583 15.0667 20.725 15.5C20.2917 15.9333 19.8583 16.3583 19.425 16.775C18.9917 17.175 18.625 17.6083 18.325 18.075C18.025 18.5417 17.875 19.0167 17.875 19.5H15ZM17.775 24.75C17.4083 25.1167 16.9667 25.3 16.45 25.3C15.9333 25.3 15.4917 25.1167 15.125 24.75C14.7583 24.3833 14.575 23.9417 14.575 23.425C14.575 22.9083 14.75 22.4667 15.1 22.1C15.4667 21.7333 15.9167 21.55 16.45 21.55C16.9667 21.55 17.4083 21.7333 17.775 22.1C18.1417 22.4667 18.325 22.9083 18.325 23.425C18.325 23.9417 18.1417 24.3833 17.775 24.75Z" fill="black"/>
</svg>
